<svg width="260" height="72" viewBox="0 0 260 72" fill="none" xmlns="http://www.w3.org/2000/svg">
<path d="M7.18359 35.2734C7.53516 35.2474 7.85417 35.1888 8.14062 35.0977C8.42708 35.0065 8.67448 34.9089 8.88281 34.8047C9.09115 34.6875 9.27344 34.5247 9.42969 34.3164C9.59896 34.0951 9.73568 33.9062 9.83984 33.75C9.94401 33.5938 10.0286 33.3594 10.0938 33.0469C10.1719 32.7344 10.224 32.4935 10.25 32.3242C10.2891 32.1419 10.3151 31.8685 10.3281 31.5039C10.3542 31.1263 10.3672 30.8529 10.3672 30.6836C10.3672 30.5143 10.3672 30.2279 10.3672 29.8242C10.3672 28.9779 10.3672 28.3464 10.3672 27.9297C10.3802 27.513 10.4062 26.9466 10.4453 26.2305C10.4974 25.5143 10.569 24.9805 10.6602 24.6289C10.7513 24.2643 10.888 23.8151 11.0703 23.2812C11.2526 22.7344 11.474 22.3307 11.7344 22.0703C12.0078 21.7969 12.3398 21.4909 12.7305 21.1523C13.1341 20.8138 13.5964 20.5664 14.1172 20.4102C14.651 20.2539 15.276 20.1237 15.9922 20.0195C16.7083 19.9023 17.5026 19.8438 18.375 19.8438V21.6016C17.8542 21.6016 17.3919 21.6146 16.9883 21.6406C16.5977 21.6536 16.2331 21.7188 15.8945 21.8359C15.569 21.9401 15.2891 22.0312 15.0547 22.1094C14.8203 22.1745 14.6055 22.3307 14.4102 22.5781C14.2148 22.8255 14.0586 23.0273 13.9414 23.1836C13.8242 23.3268 13.7201 23.6133 13.6289 24.043C13.5508 24.4596 13.4922 24.7982 13.4531 25.0586C13.4141 25.306 13.3815 25.7487 13.3555 26.3867C13.3294 27.0117 13.3164 27.5195 13.3164 27.9102C13.3164 28.2878 13.3164 28.8997 13.3164 29.7461C13.3164 29.7852 13.3164 29.8112 13.3164 29.8242C13.3164 31.7383 13.0951 33.2096 12.6523 34.2383C12.2227 35.2539 11.4089 35.9049 10.2109 36.1914C11.4089 36.4779 12.2227 37.1354 12.6523 38.1641C13.0951 39.1797 13.3164 40.6445 13.3164 42.5586C13.3164 45.332 13.3945 47.1289 13.5508 47.9492C13.7721 49.1081 14.2669 49.8828 15.0352 50.2734C15.7253 50.612 16.8385 50.7812 18.375 50.7812V52.5391C17.5026 52.5391 16.7083 52.4805 15.9922 52.3633C15.276 52.2591 14.651 52.1289 14.1172 51.9727C13.5964 51.8164 13.1341 51.569 12.7305 51.2305C12.3398 50.8919 12.0078 50.5859 11.7344 50.3125C11.474 50.0521 11.2526 49.6549 11.0703 49.1211C10.888 48.5742 10.7513 48.125 10.6602 47.7734C10.569 47.4089 10.4974 46.8685 10.4453 46.1523C10.4062 45.4362 10.3802 44.8698 10.3672 44.4531C10.3672 44.0365 10.3672 43.4049 10.3672 42.5586C10.3672 42.1549 10.3672 41.8685 10.3672 41.6992C10.3672 41.5299 10.3542 41.263 10.3281 40.8984C10.3151 40.5208 10.2891 40.2474 10.25 40.0781C10.224 39.8958 10.1719 39.6484 10.0938 39.3359C10.0286 39.0234 9.94401 38.7891 9.83984 38.6328C9.73568 38.4766 9.59896 38.2943 9.42969 38.0859C9.27344 37.8646 9.09115 37.7018 8.88281 37.5977C8.67448 37.4805 8.42708 37.3763 8.14062 37.2852C7.85417 37.194 7.53516 37.1354 7.18359 37.1094V35.2734ZM47.2227 35.293V37.1289C46.8711 37.1549 46.5521 37.2135 46.2656 37.3047C45.9792 37.3958 45.7318 37.5 45.5234 37.6172C45.3151 37.7214 45.1263 37.8841 44.957 38.1055C44.8008 38.3138 44.6706 38.4961 44.5664 38.6523C44.4622 38.8086 44.3711 39.043 44.293 39.3555C44.2279 39.668 44.1758 39.9154 44.1367 40.0977C44.1107 40.2669 44.0846 40.5404 44.0586 40.918C44.0456 41.2826 44.0391 41.5495 44.0391 41.7188C44.0391 41.888 44.0391 42.1745 44.0391 42.5781C44.0391 43.4245 44.0326 44.056 44.0195 44.4727C44.0195 44.8893 43.9935 45.4557 43.9414 46.1719C43.9023 46.888 43.8372 47.4284 43.7461 47.793C43.6549 48.1445 43.5182 48.5938 43.3359 49.1406C43.1536 49.6745 42.9258 50.0716 42.6523 50.332C42.3919 50.6055 42.0599 50.9115 41.6562 51.25C41.2656 51.5885 40.8034 51.8359 40.2695 51.9922C39.7487 52.1484 39.1302 52.2786 38.4141 52.3828C37.6979 52.5 36.9036 52.5586 36.0312 52.5586V50.8008C37.5677 50.8008 38.681 50.6315 39.3711 50.293C40.1393 49.9023 40.6341 49.1276 40.8555 47.9688C41.0117 47.1484 41.0898 45.3516 41.0898 42.5781C41.0898 40.6641 41.3047 39.1992 41.7344 38.1836C42.1771 37.1549 42.9974 36.4974 44.1953 36.2109C42.9974 35.9245 42.1771 35.2734 41.7344 34.2578C41.3047 33.2292 41.0898 31.7578 41.0898 29.8438C41.0898 29.8307 41.0898 29.8047 41.0898 29.7656C41.0898 28.9193 41.0898 28.3073 41.0898 27.9297C41.0898 27.5391 41.0768 27.0312 41.0508 26.4062C41.0247 25.7682 40.9922 25.3255 40.9531 25.0781C40.9141 24.8177 40.849 24.4792 40.7578 24.0625C40.6797 23.6328 40.582 23.3464 40.4648 23.2031C40.3477 23.0469 40.1914 22.8451 39.9961 22.5977C39.8008 22.3503 39.5859 22.194 39.3516 22.1289C39.1172 22.0508 38.8307 21.9596 38.4922 21.8555C38.1667 21.7383 37.8021 21.6732 37.3984 21.6602C37.0078 21.6341 36.5521 21.6211 36.0312 21.6211V19.8633C36.9036 19.8633 37.6979 19.9219 38.4141 20.0391C39.1302 20.1432 39.7487 20.2734 40.2695 20.4297C40.8034 20.5859 41.2656 20.8333 41.6562 21.1719C42.0599 21.5104 42.3919 21.8164 42.6523 22.0898C42.9258 22.3503 43.1536 22.7539 43.3359 23.3008C43.5182 23.8346 43.6549 24.2839 43.7461 24.6484C43.8372 25 43.9023 25.5339 43.9414 26.25C43.9935 26.9661 44.0195 27.5326 44.0195 27.9492C44.0326 28.3659 44.0391 28.9974 44.0391 29.8438C44.0391 30.2474 44.0391 30.5339 44.0391 30.7031C44.0391 30.8724 44.0456 31.1458 44.0586 31.5234C44.0846 31.888 44.1107 32.1615 44.1367 32.3438C44.1758 32.513 44.2279 32.7539 44.293 33.0664C44.3711 33.3789 44.4622 33.6133 44.5664 33.7695C44.6706 33.9258 44.8008 34.1146 44.957 34.3359C45.1263 34.5443 45.3151 34.707 45.5234 34.8242C45.7318 34.9284 45.9792 35.026 46.2656 35.1172C46.5521 35.2083 46.8711 35.2669 47.2227 35.293Z" fill="#6C757D"/>
<path d="M24.5664 53.8477H21.7148V20.6641H24.5664V53.8477ZM32.6914 53.8477H29.8398V20.6641H32.6914V53.8477Z" fill="#F5DEA3"/>
<path d="M68.236 35.6862H60.94L59.596 39.4062H57.292L63.34 22.7742H65.86L71.884 39.4062H69.58L68.236 35.6862ZM67.612 33.9102L64.588 25.4622L61.564 33.9102H67.612ZM87.9359 42.5742L84.5999 39.2382C83.7839 39.4623 82.9519 39.5743 82.1039 39.5743C80.5519 39.5743 79.1359 39.2142 77.8559 38.4942C76.5759 37.7582 75.5599 36.7422 74.8079 35.4462C74.0719 34.1342 73.7039 32.6622 73.7039 31.0302C73.7039 29.3982 74.0719 27.9342 74.8079 26.6382C75.5599 25.3262 76.5759 24.3102 77.8559 23.5902C79.1359 22.8542 80.5519 22.4862 82.1039 22.4862C83.6719 22.4862 85.0959 22.8542 86.3759 23.5902C87.6559 24.3102 88.6639 25.3182 89.3999 26.6142C90.1359 27.9102 90.5039 29.3822 90.5039 31.0302C90.5039 32.6302 90.1519 34.0702 89.4479 35.3502C88.7439 36.6302 87.7759 37.6382 86.5439 38.3742L90.7679 42.5742H87.9359ZM75.9359 31.0302C75.9359 32.3582 76.1999 33.5262 76.7279 34.5342C77.2719 35.5422 78.0079 36.3182 78.9359 36.8622C79.8799 37.4062 80.9359 37.6782 82.1039 37.6782C83.2719 37.6782 84.3199 37.4062 85.2479 36.8622C86.1919 36.3182 86.9279 35.5422 87.4559 34.5342C87.9999 33.5262 88.2719 32.3582 88.2719 31.0302C88.2719 29.6862 87.9999 28.5182 87.4559 27.5262C86.9279 26.5182 86.1999 25.7422 85.2719 25.1982C84.3439 24.6542 83.2879 24.3822 82.1039 24.3822C80.9199 24.3822 79.8639 24.6542 78.9359 25.1982C78.0079 25.7422 77.2719 26.5182 76.7279 27.5262C76.1999 28.5182 75.9359 29.6862 75.9359 31.0302ZM102.554 29.6862V31.5342H92.9779V29.6862H102.554ZM111.861 22.6782C113.685 22.6782 115.261 23.0222 116.589 23.7102C117.933 24.3822 118.957 25.3502 119.661 26.6142C120.381 27.8782 120.741 29.3662 120.741 31.0782C120.741 32.7902 120.381 34.2782 119.661 35.5422C118.957 36.7902 117.933 37.7502 116.589 38.4222C115.261 39.0782 113.685 39.4062 111.861 39.4062H106.653V22.6782H111.861ZM111.861 37.6062C114.021 37.6062 115.669 37.0382 116.805 35.9022C117.941 34.7502 118.509 33.1422 118.509 31.0782C118.509 28.9982 117.933 27.3742 116.781 26.2062C115.645 25.0382 114.005 24.4542 111.861 24.4542H108.837V37.6062H111.861ZM125.805 24.4542V30.0462H131.901V31.8462H125.805V37.6062H132.621V39.4062H123.621V22.6542H132.621V24.4542H125.805ZM149.75 22.6782L143.438 39.4062H140.918L134.606 22.6782H136.934L142.19 37.1022L147.446 22.6782H149.75ZM154.329 24.4542V30.0462H160.425V31.8462H154.329V37.6062H161.145V39.4062H152.145V22.6542H161.145V24.4542H154.329ZM166.634 37.6302H172.49V39.4062H164.45V22.6782H166.634V37.6302ZM182.393 39.5743C180.841 39.5743 179.425 39.2142 178.145 38.4942C176.865 37.7582 175.849 36.7422 175.097 35.4462C174.361 34.1342 173.993 32.6622 173.993 31.0302C173.993 29.3982 174.361 27.9342 175.097 26.6382C175.849 25.3262 176.865 24.3102 178.145 23.5902C179.425 22.8542 180.841 22.4862 182.393 22.4862C183.961 22.4862 185.385 22.8542 186.665 23.5902C187.945 24.3102 188.953 25.3182 189.689 26.6142C190.425 27.9102 190.793 29.3822 190.793 31.0302C190.793 32.6782 190.425 34.1502 189.689 35.4462C188.953 36.7422 187.945 37.7582 186.665 38.4942C185.385 39.2142 183.961 39.5743 182.393 39.5743ZM182.393 37.6782C183.561 37.6782 184.609 37.4062 185.537 36.8622C186.481 36.3182 187.217 35.5422 187.745 34.5342C188.289 33.5262 188.561 32.3582 188.561 31.0302C188.561 29.6862 188.289 28.5182 187.745 27.5262C187.217 26.5182 186.489 25.7422 185.561 25.1982C184.633 24.6542 183.577 24.3822 182.393 24.3822C181.209 24.3822 180.153 24.6542 179.225 25.1982C178.297 25.7422 177.561 26.5182 177.017 27.5262C176.489 28.5182 176.225 29.6862 176.225 31.0302C176.225 32.3582 176.489 33.5262 177.017 34.5342C177.561 35.5422 178.297 36.3182 179.225 36.8622C180.169 37.4062 181.225 37.6782 182.393 37.6782ZM204.86 27.5742C204.86 28.9662 204.38 30.1262 203.42 31.0542C202.476 31.9662 201.028 32.4222 199.076 32.4222H195.86V39.4062H193.676V22.6782H199.076C200.964 22.6782 202.396 23.1342 203.372 24.0462C204.364 24.9582 204.86 26.1342 204.86 27.5742ZM199.076 30.6222C200.292 30.6222 201.188 30.3582 201.764 29.8302C202.34 29.3022 202.628 28.5502 202.628 27.5742C202.628 25.5102 201.444 24.4782 199.076 24.4782H195.86V30.6222H199.076ZM209.759 24.4542V30.0462H215.855V31.8462H209.759V37.6062H216.575V39.4062H207.575V22.6542H216.575V24.4542H209.759ZM228.687 39.4062L224.703 32.5662H222.063V39.4062H219.879V22.6782H225.279C226.543 22.6782 227.607 22.8942 228.471 23.3262C229.351 23.7582 230.007 24.3422 230.439 25.0782C230.871 25.8142 231.087 26.6542 231.087 27.5982C231.087 28.7502 230.751 29.7662 230.079 30.6462C229.423 31.5262 228.431 32.1102 227.103 32.3982L231.303 39.4062H228.687ZM222.063 30.8142H225.279C226.463 30.8142 227.351 30.5262 227.943 29.9502C228.535 29.3582 228.831 28.5742 228.831 27.5982C228.831 26.6062 228.535 25.8382 227.943 25.2943C227.367 24.7502 226.479 24.4782 225.279 24.4782H222.063V30.8142ZM239.785 39.5743C238.681 39.5743 237.689 39.3822 236.809 38.9982C235.945 38.5982 235.265 38.0542 234.769 37.3662C234.273 36.6622 234.017 35.8542 234.001 34.9422H236.329C236.409 35.7262 236.729 36.3902 237.289 36.9342C237.865 37.4622 238.697 37.7262 239.785 37.7262C240.825 37.7262 241.641 37.4702 242.233 36.9582C242.841 36.4302 243.145 35.7582 243.145 34.9422C243.145 34.3022 242.969 33.7822 242.617 33.3822C242.265 32.9822 241.825 32.6782 241.297 32.4702C240.769 32.2622 240.057 32.0382 239.161 31.7982C238.057 31.5102 237.169 31.2222 236.497 30.9342C235.841 30.6462 235.273 30.1982 234.793 29.5902C234.329 28.9662 234.097 28.1342 234.097 27.0942C234.097 26.1822 234.329 25.3742 234.793 24.6702C235.257 23.9662 235.905 23.4222 236.737 23.0382C237.585 22.6542 238.553 22.4622 239.641 22.4622C241.209 22.4622 242.489 22.8542 243.481 23.6382C244.489 24.4222 245.057 25.4622 245.185 26.7582H242.785C242.705 26.1182 242.369 25.5582 241.777 25.0782C241.185 24.5822 240.401 24.3342 239.425 24.3342C238.513 24.3342 237.769 24.5742 237.193 25.0542C236.617 25.5182 236.329 26.1742 236.329 27.0222C236.329 27.6302 236.497 28.1262 236.833 28.5102C237.185 28.8942 237.609 29.1902 238.105 29.3982C238.617 29.5902 239.329 29.8142 240.241 30.0702C241.345 30.3742 242.233 30.6782 242.905 30.9822C243.577 31.2702 244.153 31.7262 244.633 32.3503C245.113 32.9582 245.353 33.7902 245.353 34.8462C245.353 35.6622 245.137 36.4302 244.705 37.1502C244.273 37.8702 243.633 38.4542 242.785 38.9022C241.937 39.3502 240.937 39.5743 239.785 39.5743Z" fill="#F5DEA3"/>
<path d="M61.116 45.8357C62.18 45.8357 63.0993 46.0364 63.874 46.4377C64.658 46.8297 65.2553 47.3944 65.666 48.1317C66.086 48.8691 66.296 49.7371 66.296 50.7357C66.296 51.7344 66.086 52.6024 65.666 53.3397C65.2553 54.0677 64.658 54.6277 63.874 55.0197C63.0993 55.4024 62.18 55.5938 61.116 55.5938H58.078V45.8357H61.116ZM61.116 54.5437C62.376 54.5437 63.3373 54.2124 64 53.5497C64.6627 52.8777 64.994 51.9397 64.994 50.7357C64.994 49.5224 64.658 48.5751 63.986 47.8937C63.3233 47.2124 62.3667 46.8717 61.116 46.8717H59.352V54.5437H61.116ZM68.6344 46.6757C68.3918 46.6757 68.1864 46.5917 68.0184 46.4237C67.8504 46.2557 67.7664 46.0504 67.7664 45.8077C67.7664 45.5651 67.8504 45.3597 68.0184 45.1917C68.1864 45.0237 68.3918 44.9397 68.6344 44.9397C68.8678 44.9397 69.0638 45.0237 69.2224 45.1917C69.3904 45.3597 69.4744 45.5651 69.4744 45.8077C69.4744 46.0504 69.3904 46.2557 69.2224 46.4237C69.0638 46.5917 68.8678 46.6757 68.6344 46.6757ZM69.2504 47.9217V55.5938H67.9764V47.9217H69.2504ZM74.5858 47.7957C75.2484 47.7957 75.8271 47.9404 76.3218 48.2297C76.8258 48.5191 77.1991 48.8831 77.4418 49.3217V47.9217H78.7298V55.7618C78.7298 56.4618 78.5804 57.0824 78.2818 57.6238C77.9831 58.1744 77.5538 58.6038 76.9938 58.9118C76.4431 59.2198 75.7991 59.3738 75.0618 59.3738C74.0538 59.3738 73.2138 59.1358 72.5418 58.6598C71.8698 58.1838 71.4731 57.5351 71.3518 56.7138H72.6118C72.7518 57.1804 73.0411 57.5538 73.4798 57.8338C73.9184 58.1231 74.4458 58.2678 75.0618 58.2678C75.7618 58.2678 76.3311 58.0484 76.7698 57.6098C77.2178 57.1711 77.4418 56.5551 77.4418 55.7618V54.1517C77.1898 54.5997 76.8164 54.9731 76.3218 55.2717C75.8271 55.5704 75.2484 55.7198 74.5858 55.7198C73.9044 55.7198 73.2838 55.5518 72.7238 55.2157C72.1731 54.8797 71.7391 54.4084 71.4218 53.8017C71.1044 53.1951 70.9458 52.5044 70.9458 51.7297C70.9458 50.9457 71.1044 50.2597 71.4218 49.6717C71.7391 49.0744 72.1731 48.6124 72.7238 48.2857C73.2838 47.9591 73.9044 47.7957 74.5858 47.7957ZM77.4418 51.7437C77.4418 51.1651 77.3251 50.6611 77.0918 50.2317C76.8584 49.8024 76.5411 49.4757 76.1398 49.2517C75.7478 49.0184 75.3138 48.9017 74.8378 48.9017C74.3618 48.9017 73.9278 49.0137 73.5358 49.2377C73.1438 49.4617 72.8311 49.7884 72.5978 50.2177C72.3644 50.6471 72.2478 51.1511 72.2478 51.7297C72.2478 52.3177 72.3644 52.8311 72.5978 53.2697C72.8311 53.6991 73.1438 54.0304 73.5358 54.2637C73.9278 54.4877 74.3618 54.5997 74.8378 54.5997C75.3138 54.5997 75.7478 54.4877 76.1398 54.2637C76.5411 54.0304 76.8584 53.6991 77.0918 53.2697C77.3251 52.8311 77.4418 52.3224 77.4418 51.7437ZM81.5407 46.6757C81.298 46.6757 81.0927 46.5917 80.9247 46.4237C80.7567 46.2557 80.6727 46.0504 80.6727 45.8077C80.6727 45.5651 80.7567 45.3597 80.9247 45.1917C81.0927 45.0237 81.298 44.9397 81.5407 44.9397C81.774 44.9397 81.97 45.0237 82.1287 45.1917C82.2967 45.3597 82.3807 45.5651 82.3807 45.8077C82.3807 46.0504 82.2967 46.2557 82.1287 46.4237C81.97 46.5917 81.774 46.6757 81.5407 46.6757ZM82.1567 47.9217V55.5938H80.8827V47.9217H82.1567ZM85.882 48.9717V53.4937C85.882 53.8671 85.9613 54.1331 86.12 54.2917C86.2787 54.4411 86.554 54.5157 86.946 54.5157H87.884V55.5938H86.736C86.0267 55.5938 85.4947 55.4304 85.14 55.1037C84.7853 54.7771 84.608 54.2404 84.608 53.4937V48.9717H83.614V47.9217H84.608V45.9897H85.882V47.9217H87.884V48.9717H85.882ZM88.9516 51.7297C88.9516 50.9457 89.1103 50.2597 89.4276 49.6717C89.7449 49.0744 90.1789 48.6124 90.7296 48.2857C91.2896 47.9591 91.9103 47.7957 92.5916 47.7957C93.2636 47.7957 93.8469 47.9404 94.3416 48.2297C94.8363 48.5191 95.2049 48.8831 95.4476 49.3217V47.9217H96.7356V55.5938H95.4476V54.1657C95.1956 54.6137 94.8176 54.9871 94.3136 55.2857C93.8189 55.5751 93.2403 55.7198 92.5776 55.7198C91.8963 55.7198 91.2803 55.5518 90.7296 55.2157C90.1789 54.8797 89.7449 54.4084 89.4276 53.8017C89.1103 53.1951 88.9516 52.5044 88.9516 51.7297ZM95.4476 51.7437C95.4476 51.1651 95.3309 50.6611 95.0976 50.2317C94.8643 49.8024 94.5469 49.4757 94.1456 49.2517C93.7536 49.0184 93.3196 48.9017 92.8436 48.9017C92.3676 48.9017 91.9336 49.0137 91.5416 49.2377C91.1496 49.4617 90.8369 49.7884 90.6036 50.2177C90.3703 50.6471 90.2536 51.1511 90.2536 51.7297C90.2536 52.3177 90.3703 52.8311 90.6036 53.2697C90.8369 53.6991 91.1496 54.0304 91.5416 54.2637C91.9336 54.4877 92.3676 54.5997 92.8436 54.5997C93.3196 54.5997 93.7536 54.4877 94.1456 54.2637C94.5469 54.0304 94.8643 53.6991 95.0976 53.2697C95.3309 52.8311 95.4476 52.3224 95.4476 51.7437ZM100.163 45.2337V55.5938H98.8885V45.2337H100.163ZM105.59 50.7077C105.59 49.7557 105.805 48.9017 106.234 48.1457C106.664 47.3804 107.247 46.7831 107.984 46.3537C108.731 45.9244 109.557 45.7097 110.462 45.7097C111.526 45.7097 112.455 45.9664 113.248 46.4797C114.042 46.9931 114.62 47.7211 114.984 48.6637H113.458C113.188 48.0757 112.796 47.6231 112.282 47.3057C111.778 46.9884 111.172 46.8297 110.462 46.8297C109.781 46.8297 109.17 46.9884 108.628 47.3057C108.087 47.6231 107.662 48.0757 107.354 48.6637C107.046 49.2424 106.892 49.9237 106.892 50.7077C106.892 51.4824 107.046 52.1637 107.354 52.7517C107.662 53.3304 108.087 53.7784 108.628 54.0957C109.17 54.4131 109.781 54.5717 110.462 54.5717C111.172 54.5717 111.778 54.4177 112.282 54.1097C112.796 53.7924 113.188 53.3397 113.458 52.7517H114.984C114.62 53.6851 114.042 54.4084 113.248 54.9217C112.455 55.4257 111.526 55.6778 110.462 55.6778C109.557 55.6778 108.731 55.4677 107.984 55.0477C107.247 54.6184 106.664 54.0257 106.234 53.2697C105.805 52.5137 105.59 51.6597 105.59 50.7077ZM120.227 55.7198C119.508 55.7198 118.855 55.5564 118.267 55.2297C117.688 54.9031 117.231 54.4411 116.895 53.8438C116.568 53.2371 116.405 52.5371 116.405 51.7437C116.405 50.9597 116.573 50.2691 116.909 49.6717C117.254 49.0651 117.721 48.6031 118.309 48.2857C118.897 47.9591 119.555 47.7957 120.283 47.7957C121.011 47.7957 121.669 47.9591 122.257 48.2857C122.845 48.6031 123.307 49.0604 123.643 49.6577C123.988 50.2551 124.161 50.9504 124.161 51.7437C124.161 52.5371 123.983 53.2371 123.629 53.8438C123.283 54.4411 122.812 54.9031 122.215 55.2297C121.617 55.5564 120.955 55.7198 120.227 55.7198ZM120.227 54.5997C120.684 54.5997 121.113 54.4924 121.515 54.2777C121.916 54.0631 122.238 53.7411 122.481 53.3117C122.733 52.8824 122.859 52.3597 122.859 51.7437C122.859 51.1277 122.737 50.6051 122.495 50.1757C122.252 49.7464 121.935 49.4291 121.543 49.2237C121.151 49.0091 120.726 48.9017 120.269 48.9017C119.802 48.9017 119.373 49.0091 118.981 49.2237C118.598 49.4291 118.29 49.7464 118.057 50.1757C117.823 50.6051 117.707 51.1277 117.707 51.7437C117.707 52.3691 117.819 52.8964 118.043 53.3257C118.276 53.7551 118.584 54.0771 118.967 54.2917C119.349 54.4971 119.769 54.5997 120.227 54.5997ZM125.36 51.7297C125.36 50.9457 125.518 50.2597 125.836 49.6717C126.153 49.0744 126.587 48.6124 127.138 48.2857C127.698 47.9591 128.323 47.7957 129.014 47.7957C129.611 47.7957 130.166 47.9357 130.68 48.2157C131.193 48.4864 131.585 48.8457 131.856 49.2937V45.2337H133.144V55.5938H131.856V54.1517C131.604 54.6091 131.23 54.9871 130.736 55.2857C130.241 55.5751 129.662 55.7198 129 55.7198C128.318 55.7198 127.698 55.5518 127.138 55.2157C126.587 54.8797 126.153 54.4084 125.836 53.8017C125.518 53.1951 125.36 52.5044 125.36 51.7297ZM131.856 51.7437C131.856 51.1651 131.739 50.6611 131.506 50.2317C131.272 49.8024 130.955 49.4757 130.554 49.2517C130.162 49.0184 129.728 48.9017 129.252 48.9017C128.776 48.9017 128.342 49.0137 127.95 49.2377C127.558 49.4617 127.245 49.7884 127.012 50.2177C126.778 50.6471 126.662 51.1511 126.662 51.7297C126.662 52.3177 126.778 52.8311 127.012 53.2697C127.245 53.6991 127.558 54.0304 127.95 54.2637C128.342 54.4877 128.776 54.5997 129.252 54.5997C129.728 54.5997 130.162 54.4877 130.554 54.2637C130.955 54.0304 131.272 53.6991 131.506 53.2697C131.739 52.8311 131.856 52.3224 131.856 51.7437ZM135.955 46.6757C135.712 46.6757 135.507 46.5917 135.339 46.4237C135.171 46.2557 135.087 46.0504 135.087 45.8077C135.087 45.5651 135.171 45.3597 135.339 45.1917C135.507 45.0237 135.712 44.9397 135.955 44.9397C136.188 44.9397 136.384 45.0237 136.543 45.1917C136.711 45.3597 136.795 45.5651 136.795 45.8077C136.795 46.0504 136.711 46.2557 136.543 46.4237C136.384 46.5917 136.188 46.6757 135.955 46.6757ZM136.571 47.9217V55.5938H135.297V47.9217H136.571ZM142.48 47.7817C143.413 47.7817 144.169 48.0664 144.748 48.6357C145.327 49.1957 145.616 50.0077 145.616 51.0717V55.5938H144.356V51.2537C144.356 50.4884 144.165 49.9051 143.782 49.5037C143.399 49.0931 142.877 48.8877 142.214 48.8877C141.542 48.8877 141.005 49.0977 140.604 49.5177C140.212 49.9377 140.016 50.5491 140.016 51.3517V55.5938H138.742V47.9217H140.016V49.0137C140.268 48.6217 140.609 48.3184 141.038 48.1037C141.477 47.8891 141.957 47.7817 142.48 47.7817ZM150.861 47.7957C151.524 47.7957 152.102 47.9404 152.597 48.2297C153.101 48.5191 153.474 48.8831 153.717 49.3217V47.9217H155.005V55.7618C155.005 56.4618 154.856 57.0824 154.557 57.6238C154.258 58.1744 153.829 58.6038 153.269 58.9118C152.718 59.2198 152.074 59.3738 151.337 59.3738C150.329 59.3738 149.489 59.1358 148.817 58.6598C148.145 58.1838 147.748 57.5351 147.627 56.7138H148.887C149.027 57.1804 149.316 57.5538 149.755 57.8338C150.194 58.1231 150.721 58.2678 151.337 58.2678C152.037 58.2678 152.606 58.0484 153.045 57.6098C153.493 57.1711 153.717 56.5551 153.717 55.7618V54.1517C153.465 54.5997 153.092 54.9731 152.597 55.2717C152.102 55.5704 151.524 55.7198 150.861 55.7198C150.18 55.7198 149.559 55.5518 148.999 55.2157C148.448 54.8797 148.014 54.4084 147.697 53.8017C147.38 53.1951 147.221 52.5044 147.221 51.7297C147.221 50.9457 147.38 50.2597 147.697 49.6717C148.014 49.0744 148.448 48.6124 148.999 48.2857C149.559 47.9591 150.18 47.7957 150.861 47.7957ZM153.717 51.7437C153.717 51.1651 153.6 50.6611 153.367 50.2317C153.134 49.8024 152.816 49.4757 152.415 49.2517C152.023 49.0184 151.589 48.9017 151.113 48.9017C150.637 48.9017 150.203 49.0137 149.811 49.2377C149.419 49.4617 149.106 49.7884 148.873 50.2177C148.64 50.6471 148.523 51.1511 148.523 51.7297C148.523 52.3177 148.64 52.8311 148.873 53.2697C149.106 53.6991 149.419 54.0304 149.811 54.2637C150.203 54.4877 150.637 54.5997 151.113 54.5997C151.589 54.5997 152.023 54.4877 152.415 54.2637C152.816 54.0304 153.134 53.6991 153.367 53.2697C153.6 52.8311 153.717 52.3224 153.717 51.7437ZM163.985 55.6918C163.341 55.6918 162.762 55.5797 162.249 55.3557C161.745 55.1224 161.348 54.8051 161.059 54.4037C160.769 53.9931 160.62 53.5217 160.611 52.9897H161.969C162.015 53.4471 162.202 53.8344 162.529 54.1517C162.865 54.4597 163.35 54.6137 163.985 54.6137C164.591 54.6137 165.067 54.4644 165.413 54.1657C165.767 53.8577 165.945 53.4657 165.945 52.9897C165.945 52.6164 165.842 52.3131 165.637 52.0797C165.431 51.8464 165.175 51.6691 164.867 51.5477C164.559 51.4264 164.143 51.2957 163.621 51.1557C162.977 50.9877 162.459 50.8197 162.067 50.6517C161.684 50.4837 161.353 50.2224 161.073 49.8677C160.802 49.5037 160.667 49.0184 160.667 48.4117C160.667 47.8797 160.802 47.4084 161.073 46.9977C161.343 46.5871 161.721 46.2697 162.207 46.0457C162.701 45.8217 163.266 45.7097 163.901 45.7097C164.815 45.7097 165.562 45.9384 166.141 46.3957C166.729 46.8531 167.06 47.4597 167.135 48.2157H165.735C165.688 47.8424 165.492 47.5157 165.147 47.2357C164.801 46.9464 164.344 46.8017 163.775 46.8017C163.243 46.8017 162.809 46.9417 162.473 47.2217C162.137 47.4924 161.969 47.8751 161.969 48.3697C161.969 48.7244 162.067 49.0137 162.263 49.2377C162.468 49.4617 162.715 49.6344 163.005 49.7557C163.303 49.8677 163.719 49.9984 164.251 50.1477C164.895 50.3251 165.413 50.5024 165.805 50.6797C166.197 50.8477 166.533 51.1137 166.812 51.4778C167.093 51.8324 167.233 52.3177 167.233 52.9337C167.233 53.4097 167.107 53.8577 166.855 54.2777C166.603 54.6977 166.229 55.0384 165.735 55.2997C165.24 55.5611 164.657 55.6918 163.985 55.6918ZM172.453 55.7198C171.735 55.7198 171.081 55.5564 170.493 55.2297C169.915 54.9031 169.457 54.4411 169.121 53.8438C168.795 53.2371 168.631 52.5371 168.631 51.7437C168.631 50.9597 168.799 50.2691 169.135 49.6717C169.481 49.0651 169.947 48.6031 170.535 48.2857C171.123 47.9591 171.781 47.7957 172.509 47.7957C173.237 47.7957 173.895 47.9591 174.483 48.2857C175.071 48.6031 175.533 49.0604 175.869 49.6577C176.215 50.2551 176.387 50.9504 176.387 51.7437C176.387 52.5371 176.21 53.2371 175.855 53.8438C175.51 54.4411 175.039 54.9031 174.441 55.2297C173.844 55.5564 173.181 55.7198 172.453 55.7198ZM172.453 54.5997C172.911 54.5997 173.34 54.4924 173.741 54.2777C174.143 54.0631 174.465 53.7411 174.707 53.3117C174.959 52.8824 175.085 52.3597 175.085 51.7437C175.085 51.1277 174.964 50.6051 174.721 50.1757C174.479 49.7464 174.161 49.4291 173.769 49.2237C173.377 49.0091 172.953 48.9017 172.495 48.9017C172.029 48.9017 171.599 49.0091 171.207 49.2237C170.825 49.4291 170.517 49.7464 170.283 50.1757C170.05 50.6051 169.933 51.1277 169.933 51.7437C169.933 52.3691 170.045 52.8964 170.269 53.3257C170.503 53.7551 170.811 54.0771 171.193 54.2917C171.576 54.4971 171.996 54.5997 172.453 54.5997ZM179.336 45.2337V55.5938H178.062V45.2337H179.336ZM188.312 47.9217V55.5938H187.038V54.4597C186.795 54.8517 186.454 55.1597 186.016 55.3837C185.586 55.5984 185.11 55.7058 184.588 55.7058C183.99 55.7058 183.454 55.5844 182.978 55.3417C182.502 55.0897 182.124 54.7164 181.844 54.2217C181.573 53.7271 181.438 53.1251 181.438 52.4157V47.9217H182.698V52.2477C182.698 53.0037 182.889 53.5871 183.272 53.9977C183.654 54.3991 184.177 54.5997 184.84 54.5997C185.521 54.5997 186.058 54.3897 186.45 53.9697C186.842 53.5497 187.038 52.9384 187.038 52.1357V47.9217H188.312ZM192.017 48.9717V53.4937C192.017 53.8671 192.096 54.1331 192.255 54.2917C192.413 54.4411 192.689 54.5157 193.081 54.5157H194.019V55.5938H192.871C192.161 55.5938 191.629 55.4304 191.275 55.1037C190.92 54.7771 190.743 54.2404 190.743 53.4937V48.9717H189.749V47.9217H190.743V45.9897H192.017V47.9217H194.019V48.9717H192.017ZM196.22 46.6757C195.978 46.6757 195.772 46.5917 195.604 46.4237C195.436 46.2557 195.352 46.0504 195.352 45.8077C195.352 45.5651 195.436 45.3597 195.604 45.1917C195.772 45.0237 195.978 44.9397 196.22 44.9397C196.454 44.9397 196.65 45.0237 196.808 45.1917C196.976 45.3597 197.06 45.5651 197.06 45.8077C197.06 46.0504 196.976 46.2557 196.808 46.4237C196.65 46.5917 196.454 46.6757 196.22 46.6757ZM196.836 47.9217V55.5938H195.562V47.9217H196.836ZM202.354 55.7198C201.635 55.7198 200.982 55.5564 200.394 55.2297C199.815 54.9031 199.358 54.4411 199.022 53.8438C198.695 53.2371 198.532 52.5371 198.532 51.7437C198.532 50.9597 198.7 50.2691 199.036 49.6717C199.381 49.0651 199.848 48.6031 200.436 48.2857C201.024 47.9591 201.682 47.7957 202.41 47.7957C203.138 47.7957 203.796 47.9591 204.384 48.2857C204.972 48.6031 205.434 49.0604 205.77 49.6577C206.115 50.2551 206.288 50.9504 206.288 51.7437C206.288 52.5371 206.11 53.2371 205.756 53.8438C205.41 54.4411 204.939 54.9031 204.342 55.2297C203.744 55.5564 203.082 55.7198 202.354 55.7198ZM202.354 54.5997C202.811 54.5997 203.24 54.4924 203.642 54.2777C204.043 54.0631 204.365 53.7411 204.608 53.3117C204.86 52.8824 204.986 52.3597 204.986 51.7437C204.986 51.1277 204.864 50.6051 204.622 50.1757C204.379 49.7464 204.062 49.4291 203.67 49.2237C203.278 49.0091 202.853 48.9017 202.396 48.9017C201.929 48.9017 201.5 49.0091 201.108 49.2237C200.725 49.4291 200.417 49.7464 200.184 50.1757C199.95 50.6051 199.834 51.1277 199.834 51.7437C199.834 52.3691 199.946 52.8964 200.17 53.3257C200.403 53.7551 200.711 54.0771 201.094 54.2917C201.476 54.4971 201.896 54.5997 202.354 54.5997ZM211.701 47.7817C212.634 47.7817 213.39 48.0664 213.969 48.6357C214.547 49.1957 214.837 50.0077 214.837 51.0717V55.5938H213.577V51.2537C213.577 50.4884 213.385 49.9051 213.003 49.5037C212.62 49.0931 212.097 48.8877 211.435 48.8877C210.763 48.8877 210.226 49.0977 209.825 49.5177C209.433 49.9377 209.237 50.5491 209.237 51.3517V55.5938H207.963V47.9217H209.237V49.0137C209.489 48.6217 209.829 48.3184 210.259 48.1037C210.697 47.8891 211.178 47.7817 211.701 47.7817ZM219.634 55.7198C219.046 55.7198 218.519 55.6218 218.052 55.4257C217.585 55.2204 217.217 54.9404 216.946 54.5857C216.675 54.2217 216.526 53.8064 216.498 53.3397H217.814C217.851 53.7224 218.029 54.0351 218.346 54.2777C218.673 54.5204 219.097 54.6417 219.62 54.6417C220.105 54.6417 220.488 54.5344 220.768 54.3197C221.048 54.1051 221.188 53.8344 221.188 53.5077C221.188 53.1717 221.039 52.9244 220.74 52.7657C220.441 52.5977 219.979 52.4344 219.354 52.2757C218.785 52.1264 218.318 51.9771 217.954 51.8277C217.599 51.6691 217.291 51.4404 217.03 51.1417C216.778 50.8337 216.652 50.4324 216.652 49.9377C216.652 49.5457 216.769 49.1864 217.002 48.8597C217.235 48.5331 217.567 48.2764 217.996 48.0897C218.425 47.8937 218.915 47.7957 219.466 47.7957C220.315 47.7957 221.001 48.0104 221.524 48.4397C222.047 48.8691 222.327 49.4571 222.364 50.2037H221.09C221.062 49.8024 220.899 49.4804 220.6 49.2377C220.311 48.9951 219.919 48.8737 219.424 48.8737C218.967 48.8737 218.603 48.9717 218.332 49.1677C218.061 49.3637 217.926 49.6204 217.926 49.9377C217.926 50.1897 218.005 50.3997 218.164 50.5677C218.332 50.7264 218.537 50.8571 218.78 50.9597C219.032 51.0531 219.377 51.1604 219.816 51.2817C220.367 51.4311 220.815 51.5804 221.16 51.7297C221.505 51.8697 221.799 52.0844 222.042 52.3737C222.294 52.6631 222.425 53.0411 222.434 53.5077C222.434 53.9277 222.317 54.3057 222.084 54.6417C221.851 54.9777 221.519 55.2437 221.09 55.4397C220.67 55.6264 220.185 55.7198 219.634 55.7198Z" fill="#F5DEA3"/>
</svg>
